<?xml version="1.0" standalone="no"?>
<!DOCTYPE svg PUBLIC "-//W3C//DTD SVG 20010904//EN"
 "http://www.w3.org/TR/2001/REC-SVG-20010904/DTD/svg10.dtd">
<svg version="1.0" xmlns="http://www.w3.org/2000/svg"
 width="800.000000pt" height="800.000000pt" viewBox="0 0 800.000000 800.000000"
 preserveAspectRatio="xMidYMid meet">
<metadata>
Created by potrace 1.11, written by Peter Selinger 2001-2013
</metadata>
<g transform="translate(0.000000,800.000000) scale(0.100000,-0.100000)"
fill="#000000" stroke="none">
<path d="M0 4000 l0 -4000 2088 1 c1148 1 2074 4 2057 6 -397 54 -772 166
-1094 328 -543 272 -945 679 -1216 1230 -192 390 -283 751 -330 1303 l-6 72
804 0 805 0 6 -22 c3 -13 6 -45 6 -73 0 -74 37 -311 65 -417 111 -429 334
-748 657 -940 375 -223 982 -280 1424 -133 239 79 491 247 651 434 241 282
392 641 443 1051 7 56 10 923 10 2622 l0 2538 -3185 0 -3185 0 0 -4000z"/>
<path d="M7994 7815 c0 -104 2 -146 3 -92 2 54 2 139 0 190 -1 51 -3 7 -3 -98z"/>
<path d="M7990 2902 c0 -139 -42 -403 -101 -631 -177 -687 -590 -1286 -1172
-1699 -385 -273 -854 -466 -1342 -551 l-110 -19 1368 -1 1367 -1 0 1480 c0
814 -2 1480 -5 1480 -3 0 -5 -26 -5 -58z"/>
</g>
</svg>
